<?xml version="1.0" encoding="UTF-8" standalone="no"?>
<!-- Created with Inkscape (http://www.inkscape.org/) -->
<svg xmlns:dc="http://purl.org/dc/elements/1.1/" xmlns:cc="http://web.resource.org/cc/" xmlns:rdf="http://www.w3.org/1999/02/22-rdf-syntax-ns#" xmlns:svg="http://www.w3.org/2000/svg" xmlns="http://www.w3.org/2000/svg" xmlns:sodipodi="http://sodipodi.sourceforge.net/DTD/sodipodi-0.dtd" xmlns:inkscape="http://www.inkscape.org/namespaces/inkscape" width="615.18396" height="879.36011" id="svg2282" sodipodi:version="0.32" inkscape:version="0.45" sodipodi:docbase="/home/evans/Desktop" sodipodi:docname="Sabathius_Fire_warning_symbol.svg" inkscape:output_extension="org.inkscape.output.svg.inkscape" sodipodi:modified="true" version="1.0">
  <defs id="defs3"/>
  <sodipodi:namedview inkscape:document-units="mm" id="base" pagecolor="#ffffff" bordercolor="#666666" borderopacity="1.0" inkscape:pageopacity="0.0" inkscape:pageshadow="2" inkscape:zoom="0.35" inkscape:cx="350" inkscape:cy="520" inkscape:current-layer="layer1" inkscape:window-width="910" inkscape:window-height="622" inkscape:window-x="44" inkscape:window-y="58" inkscape:showpageshadow="false"/>
  <metadata id="metadata4">
    <rdf:RDF>
      <cc:Work rdf:about="">
        <dc:format>image/svg+xml</dc:format>
        <dc:type rdf:resource="http://purl.org/dc/dcmitype/StillImage"/>
      </cc:Work>
    </rdf:RDF>
  </metadata>
  <g inkscape:label="Layer 1" inkscape:groupmode="layer" id="layer1" transform="translate(-61.4902, -74.6094)">
    <path style="opacity:1;fill:#000000;fill-rule:evenodd;stroke:#000000;stroke-width:0.51174384px;stroke-linecap:butt;stroke-linejoin:miter;stroke-opacity:1;display:inline" d="M 350.88053,74.865226 C 263.0831,165.7812 366.00805,300.62647 322.10934,311.23332 C 322.10934,311.23332 267.61774,224.86171 205.55406,233.9533 C 302.29006,363.06385 246.17938,443.9827 246.42513,443.07336 C 185.8752,367.3101 107.9454,365.67939 125.33041,377.90534 C 197.97496,428.99252 175.28039,565.8094 175.28039,565.8094 C 175.28039,565.8094 98.076042,499.13428 61.746088,533.98538 C 160.43044,584.10554 117.76525,641.56324 116.25151,711.26544 C 112.92202,849.6873 199.54858,911.79839 215.22438,921.88949 L 173.76191,921.88949 L 173.76191,953.71359 L 565.83328,953.71359 L 565.83328,921.88949 L 517.33785,921.88949 C 548.51808,908.44549 667.13358,847.7688 676.33065,699.15345 C 676.3306,699.15345 679.30537,612.64176 650.59641,577.9214 C 643.02764,609.74196 623.34368,612.76942 623.34368,612.76942 C 611.2337,614.28468 639.99901,541.35328 639.99901,509.74538 C 639.99906,436.99688 588.53055,409.72935 588.53055,409.72935 C 588.53055,409.72934 600.64831,490.03387 555.23591,515.79338 C 546.12129,496.92128 581.51371,290.20481 452.29901,249.10531 C 485.60147,317.29224 478.03322,343.05734 478.03322,343.05734 C 478.03317,343.05733 474.7835,377.55793 473.49378,368.81734 C 463.60048,301.7753 403.85149,236.9933 403.85149,236.9933 C 403.85149,236.9933 370.66734,208.20863 350.88053,74.865226 z M 440.18314,576.41739 C 458.34811,602.1769 440.18314,730.96145 440.18314,730.96145 C 470.4581,721.86986 506.4144,662.46337 514.36481,653.68143 C 524.32825,642.67594 518.90264,727.9391 482.57268,764.30546 C 521.76917,755.375 541.60155,723.39344 541.60155,723.39344 C 541.60155,723.39344 527.23324,865.35118 359.95944,909.76149 C 329.68443,927.94479 170.008,828.5941 257.02252,674.89743 C 285.78374,809.75604 335.74371,809.76148 335.74371,809.76148 C 335.74366,809.76148 297.90181,688.54378 331.20426,652.17742 C 331.20426,652.17742 349.0249,716.7372 384.17522,721.87345 C 405.36764,618.83541 440.18314,576.41739 440.18314,576.41739 z " id="path2244"/>
  </g>
</svg>