<?xml version="1.0" encoding="UTF-8" standalone="no"?>
<svg
   xmlns:dc="http://purl.org/dc/elements/1.1/"
   xmlns:cc="http://creativecommons.org/ns#"
   xmlns:rdf="http://www.w3.org/1999/02/22-rdf-syntax-ns#"
   xmlns:svg="http://www.w3.org/2000/svg"
   xmlns="http://www.w3.org/2000/svg"
   xmlns:sodipodi="http://sodipodi.sourceforge.net/DTD/sodipodi-0.dtd"
   xmlns:inkscape="http://www.inkscape.org/namespaces/inkscape"
   version="1.1"
   id="Layer_1"
   x="0px"
   y="0px"
   viewBox="0 0 87.876 75.755281"
   enable-background="new 0 0 100 100"
   xml:space="preserve"
   inkscape:version="0.48.3.1 r9886"
   sodipodi:docname="monitor.svg"
   width="100%"
   height="100%"><metadata
   id="metadata15"><rdf:RDF><cc:Work
       rdf:about=""><dc:format>image/svg+xml</dc:format><dc:type
         rdf:resource="http://purl.org/dc/dcmitype/StillImage" /></cc:Work></rdf:RDF></metadata><defs
   id="defs13">
	

		
	
			
		
				
			</defs><sodipodi:namedview
   pagecolor="#ffffff"
   bordercolor="#666666"
   borderopacity="1"
   objecttolerance="10"
   gridtolerance="10"
   guidetolerance="10"
   inkscape:pageopacity="0"
   inkscape:pageshadow="2"
   inkscape:window-width="1215"
   inkscape:window-height="1000"
   id="namedview11"
   showgrid="false"
   inkscape:zoom="16"
   inkscape:cx="44.900909"
   inkscape:cy="20.879451"
   inkscape:window-x="65"
   inkscape:window-y="24"
   inkscape:window-maximized="1"
   inkscape:current-layer="Layer_1"
   fit-margin-top="0"
   fit-margin-left="0"
   fit-margin-right="0"
   fit-margin-bottom="0" />
<path
   d="M 5.002717,55.926711 H 82.873283 V 5.084437 H 5.002717 V 55.926711 z M 0,4.067131 C 0,1.819837 1.8198366,0 4.06713,0 H 83.807822 C 86.055116,0 87.876,1.819837 87.876,4.067131 v 53.893145 c 0,2.247294 -1.820884,4.06713 -4.068178,4.06713 H 57.15565 v 6.864461 c 0,0.447364 -0.07019,0.874821 -0.202204,1.270848 h 12.151102 c 1.54639,0 2.796283,1.250941 2.796283,2.796283 0,1.545342 -1.250941,2.796283 -2.79733,2.796283 H 18.770404 c -1.545342,0 -2.796283,-1.250941 -2.796283,-2.796283 0,-0.772147 0.315355,-1.474099 0.823484,-1.983276 0.497652,-0.499748 1.199604,-0.813007 1.972799,-0.813007 H 30.921506 C 30.789497,69.766688 30.718255,69.339231 30.718255,68.891867 V 62.027406 H 4.06713 C 1.8198366,62.027406 0,60.20757 0,57.960276 V 4.067131 z"
   id="path9"
   inkscape:connector-curvature="0"
   style="fill:#000000" />
<text
   xml:space="preserve"
   style="font-size:14px;font-style:normal;font-weight:normal;line-height:125%;letter-spacing:0px;word-spacing:0px;fill:#000000;fill-opacity:1;stroke:none;font-family:Sans"
   x="31.819805"
   y="2.7465053"
   id="text3213"
   sodipodi:linespacing="125%"><tspan
     sodipodi:role="line"
     id="tspan3215"
     x="31.819805"
     y="2.7465053" /></text>
<text
   xml:space="preserve"
   style="font-size:23.45749283px;font-style:normal;font-weight:normal;line-height:125%;letter-spacing:0px;word-spacing:0px;fill:#000000;fill-opacity:1;stroke:none;font-family:Sans"
   x="34.828014"
   y="59.584435"
   id="text3217"
   sodipodi:linespacing="125%"><tspan
     sodipodi:role="line"
     id="tspan3219"
     x="34.828014"
     y="59.584435"
     style="font-size:1.75931215px;font-style:italic;font-variant:normal;font-weight:bold;font-stretch:normal;fill:#ffffff;font-family:PT Sans;-inkscape-font-specification:PT Sans Bold Italic">Промежуточный сервер</tspan></text>
</svg>