<?xml version="1.0" encoding="UTF-8" standalone="no"?>
<!-- Generator: Adobe Illustrator 14.0.0, SVG Export Plug-In . SVG Version: 6.00 Build 43363)  -->

<svg
   xmlns:dc="http://purl.org/dc/elements/1.1/"
   xmlns:cc="http://creativecommons.org/ns#"
   xmlns:rdf="http://www.w3.org/1999/02/22-rdf-syntax-ns#"
   xmlns:svg="http://www.w3.org/2000/svg"
   xmlns="http://www.w3.org/2000/svg"
   xmlns:sodipodi="http://sodipodi.sourceforge.net/DTD/sodipodi-0.dtd"
   xmlns:inkscape="http://www.inkscape.org/namespaces/inkscape"
   version="1.0"
   id="Layer_1"
   x="0px"
   y="0px"
   width="37.207px"
   height="100px"
   viewBox="0 0 37.207 100"
   enable-background="new 0 0 37.207 100"
   xml:space="preserve"
   inkscape:version="0.48.1 "
   sodipodi:docname="man.svg"><metadata
   id="metadata3319"><rdf:RDF><cc:Work
       rdf:about=""><dc:format>image/svg+xml</dc:format><dc:type
         rdf:resource="http://purl.org/dc/dcmitype/StillImage" /><dc:title></dc:title></cc:Work></rdf:RDF></metadata><defs
   id="defs3317" /><sodipodi:namedview
   pagecolor="#ffffff"
   bordercolor="#666666"
   borderopacity="1"
   objecttolerance="10"
   gridtolerance="10"
   guidetolerance="10"
   inkscape:pageopacity="0"
   inkscape:pageshadow="2"
   inkscape:window-width="640"
   inkscape:window-height="480"
   id="namedview3315"
   showgrid="false"
   inkscape:zoom="2.61"
   inkscape:cx="17.721929"
   inkscape:cy="49.99183"
   inkscape:window-x="0"
   inkscape:window-y="0"
   inkscape:window-maximized="0"
   inkscape:current-layer="Layer_1" />


<g
   transform="matrix(1.0655281,0,0,1.0655281,-811.55731,-937.9848)"
   id="g3332"><g
     id="g5210"
     transform="matrix(0.93552701,0,0,0.93552701,42.076865,52.148226)"><path
       id="path3"
       d="m 803.16337,907.12697 c -1.986,-2.793 -12.403,-3.46 -12.403,-3.46 l -3.617,10.383 -3.618,-10.384 c 0,0 -10.416,0.667 -12.403,3.46 v 36.34 h 6.202 l 3.875,42.11 h 5.943 5.943 l 3.875,-42.108 h 6.202 v -36.341 z"
       inkscape:connector-curvature="0" /><ellipse
       id="ellipse5"
       ry="7.7509999"
       rx="6.073"
       cy="7.7519999"
       cx="16.021"
       sodipodi:cx="16.021"
       sodipodi:cy="7.7519999"
       sodipodi:rx="6.073"
       sodipodi:ry="7.7509999"
       transform="translate(771.12237,885.57597)"
       d="m 22.094,7.7519999 c 0,4.2807591 -2.718975,7.7510001 -6.073,7.7510001 -3.354025,0 -6.073,-3.470241 -6.073,-7.7510001 0,-4.2807591 2.718975,-7.75099997248 6.073,-7.75099997248 3.354025,0 6.073,3.47024087248 6.073,7.75099997248 z" /></g><rect
     style="fill:#eeeeec;fill-opacity:1;stroke:none"
     id="rect5214"
     width="8.7126904"
     height="3.9572921"
     x="781.79657"
     y="908.36993" /></g></svg>